<?xml version="1.0" encoding="utf-8"?>
<!-- Generator: Adobe Illustrator 19.2.0, SVG Export Plug-In . SVG Version: 6.00 Build 0)  -->
<svg version="1.1" id="Layer_1" xmlns="http://www.w3.org/2000/svg" xmlns:xlink="http://www.w3.org/1999/xlink" x="0px" y="0px"
	 viewBox="0 0 750 750" style="enable-background:new 0 0 750 750;" xml:space="preserve">
<style type="text/css">
	.st0{fill:#FFFFFF;stroke:#000000;stroke-width:0.4154;stroke-linecap:round;stroke-linejoin:round;}
</style>
<g>
	<circle cx="375" cy="375" r="375"/>
	<path class="st0" d="M640.3,581.3c-21.1,0-35.7-3.9-43.9-11.8c-8.3-7.8-17.1-29.5-26.7-64.8l-66.8-248.4
		c-1.7-6.3-3.2-12.2-4.5-17.7c-0.8-3.4-1.6-6.5-2.2-9.6c0,0,0,0,0,0c-3.4-15.1-5.1-26-5.1-32.6c0-7.5,2.8-13.7,8.5-18.7
		c5.7-4.9,18.1-7.9,37.4-9l-3.3-11.9H216.3l-3.3,11.9c19.3,1.1,31.7,4.1,37.4,9c1.1,0.9,2,1.9,2.9,2.9c3.8,4.4,5.6,9.7,5.6,15.8
		c0,6.6-1.7,17.5-5.1,32.5c-0.7,3.1-1.5,6.4-2.3,9.8c-1.3,5.4-2.8,11.2-4.5,17.5l-26,96.9l-40.7,151.6c-9.5,35.4-18.4,57-26.7,64.8
		c-5.7,5.4-14.5,9-26.5,10.7c-3.5,0.7-7.1,1.1-10.8,1.1h-6.7l-3.3,11.9h307.1l34.9-109.4h-11.9c-12.9,26.8-25.5,46.9-37.9,60.2
		c-9.5,10.1-19.4,16.8-29.8,20.3c-10.3,3.4-26.9,5.1-49.7,5.1h-68.6c-11.1,0-18.7-1.2-22.7-3.7c-1.1-0.7-2-1.4-2.9-2.2
		c-0.9-2.4-1.4-5.1-1.4-7.9c0-9,3.8-27.7,11.3-56L267,380.5c28.8,7.3,52.5,10.9,71.2,10.9c5.3,0,10.6-0.2,15.8-0.6
		c7.1-0.6,14.1-1.5,20.9-2.8c1.8-0.4,3.6-0.7,5.4-1.1c14.4-3.2,28.2-8.2,41.5-14.9c1.3-0.6,2.5-1.3,3.7-1.9
		c18.2-9.6,33.1-21.3,44.6-35l12.7,45.5l32.2,119.1c7.5,28.3,11.3,47,11.3,56c0,6.9-2.7,12.5-8,17c-5.4,4.5-18.2,7.4-38.5,8.7
		l3,11.9h160.6L640.3,581.3z M427.2,311.6c-10,19.3-23.9,33.8-41.7,43.4c-1.7,0.9-3.4,1.8-5.1,2.6c-2.2,1.1-4.4,2-6.7,3
		c-14.6,6-30.4,8.9-47.5,8.9c-1,0-2,0-3,0h0c-13.3-0.4-30.4-3.5-51.2-9.3l1.9-7.1l5.1-18.9l39.5-147.8c12.3-2.3,23.4-3.9,33.4-4.7
		c0,0,0,0,0,0c5.6-0.5,10.9-0.7,15.8-0.7c2,0,4,0,6,0.1h0c17,0.7,30.8,4.7,41.4,11.8c3.1,2.1,6,4.5,8.6,7.1
		c12.3,12.7,18.5,29.8,18.5,51.5C442.2,272.2,437.2,292.3,427.2,311.6z"/>
</g>
</svg>
